# File created by Blade
# Date/Time:  Thu Sep 25 17:43:48 2014
# Frame Rate: 120.000 fps
#------------------------------------------------------
:FULLY-SPECIFIED
:DEGREES
221
root -38.365003 33.325608 -1.139603 -355.524846 -41.162254 3.936740
Spine -4.358835 4.834893 2.026374
Head -14.427101 5.952377 1.884902
LeftShoulder -10.884761 22.500484 3.687612
LeftArm 35.268779 42.646873 -62.112051
LeftForeArm -4.784995 -0.000000 23.485700
LeftHand -22.827865 -0.000000 -4.063848
LeftHandThumb1 -26.253704 0.000000 33.147579
RightShoulder -16.080981 5.954295 -21.858642
RightArm -16.544070 -49.440253 100.548509
RightForeArm -4.500478 0.000000 33.527180
RightHand -2.242300 0.000000 13.951366
RightHandThumb1 -24.326973 -0.000000 -32.862282
LeftUpLeg 3.085459 5.574473 9.883645
LeftLeg 21.240678 -0.000000 -0.000000
LeftFoot 12.649674 34.552507 345.442104
LeftToeBase -8.398291 -0.000000 0.000000
RightUpLeg -9.434732 -23.542576 4.393208
RightLeg 9.943241 -0.000000 -0.000000
RightFoot -2.056901 -21.832128 -5.286641
RightToeBase -3.287824 -0.000000 0.000000
222
root -38.457283 33.357937 -1.183267 -355.378826 -39.276057 4.020783
Spine -4.420362 5.144705 1.894886
Head -14.564666 5.942178 1.536862
LeftShoulder -10.982660 22.573305 3.566101
LeftArm 35.464335 42.505128 -61.579498
LeftForeArm -5.407697 -0.000000 23.750321
LeftHand -22.487293 0.000000 -4.695061
LeftHandThumb1 -26.253704 0.000000 33.147579
RightShoulder -16.407093 5.762032 -21.818508
RightArm -16.605417 -49.519530 100.723660
RightForeArm -4.466621 0.000000 33.918230
RightHand -2.443130 -0.000000 13.968056
RightHandThumb1 -24.326973 -0.000000 -32.862282
LeftUpLeg 2.346913 5.899460 9.989603
LeftLeg 20.665753 -0.000000 -0.000000
LeftFoot 11.100121 34.373474 344.411354
LeftToeBase -6.998186 -0.000000 0.000000
RightUpLeg -9.379546 -24.431057 4.516403
RightLeg 9.747210 -0.000000 -0.000000
RightFoot -1.977299 -22.188511 -4.955915
RightToeBase -3.210341 -0.000000 0.000000
223
root -38.534810 33.386730 -1.230728 -355.251117 -37.479023 4.121260
Spine -4.459071 5.394452 1.759404
Head -14.659114 6.050110 1.273192
LeftShoulder -11.095153 22.502389 3.560595
LeftArm 35.327540 42.157720 -61.600795
LeftForeArm -6.198624 0.000000 23.809406
LeftHand -22.132401 -0.000000 -4.505692
LeftHandThumb1 -26.253704 0.000000 33.147579
RightShoulder -16.508940 5.659000 -21.824426
RightArm -16.670440 -49.430938 100.922719
RightForeArm -4.618141 -0.000000 34.217510
RightHand -2.410226 -0.000000 13.979283
RightHandThumb1 -24.326973 -0.000000 -32.862282
LeftUpLeg 1.579306 6.357100 9.973987
LeftLeg 20.116582 -0.000000 -0.000000
LeftFoot 10.137941 33.915370 344.066021
LeftToeBase -7.454385 -0.000000 0.000000
RightUpLeg -9.384739 -25.227069 4.596181
RightLeg 9.640419 -0.000000 -0.000000
RightFoot -1.918872 -22.592243 -4.651436
RightToeBase -3.022124 -0.000000 0.000000
224
root -38.610526 33.409400 -1.276262 -355.217601 -35.799045 4.203656
Spine -4.338559 5.791341 1.684535
Head -14.788342 6.119052 0.928492
LeftShoulder -11.092691 22.409413 3.557241
LeftArm 35.080057 41.641606 -61.684649
LeftForeArm -6.789724 -0.000000 24.065971
LeftHand -21.967560 -0.000000 -4.628421
LeftHandThumb1 -26.253704 0.000000 33.147579
RightShoulder -16.704049 5.624746 -21.953805
RightArm -16.719538 -49.447267 101.171372
RightForeArm -4.690700 -0.000000 34.441620
RightHand -2.365640 -0.000000 14.039370
RightHandThumb1 -24.326973 -0.000000 -32.862282
LeftUpLeg 0.929037 7.043778 9.939659
LeftLeg 19.664072 -0.000000 -0.000000
LeftFoot 8.620697 33.591607 343.394485
LeftToeBase -6.680983 -0.000000 0.000000
RightUpLeg -9.177478 -25.543218 4.581248
RightLeg 9.431867 -0.000000 -0.000000
RightFoot -1.769785 -23.200592 -4.409953
RightToeBase -3.054558 -0.000000 0.000000
225
root -38.664221 33.436317 -1.315335 -355.271393 -34.216090 4.340425
Spine -4.121025 6.074504 1.635973
Head -14.909805 6.330057 0.557464
LeftShoulder -11.233401 22.273736 3.473111
LeftArm 34.949815 41.238526 -61.688884
LeftForeArm -7.297595 -0.000000 24.105950
LeftHand -21.717810 0.000000 -4.249404
LeftHandThumb1 -26.253704 0.000000 33.147579
RightShoulder -16.649679 5.635884 -22.040371
RightArm -16.600901 -49.694595 101.216455
RightForeArm -4.493651 0.000000 34.609275
RightHand -2.377609 -0.000000 14.082420
RightHandThumb1 -24.326973 -0.000000 -32.862282
LeftUpLeg 0.315795 7.720621 9.708807
LeftLeg 19.272586 -0.000000 -0.000000
LeftFoot 7.356060 32.994233 343.028907
LeftToeBase -7.170152 -0.000000 0.000000
RightUpLeg -9.042335 -26.061264 4.481850
RightLeg 9.333856 -0.000000 -0.000000
RightFoot -1.356371 -23.753051 -4.481211
RightToeBase -3.517346 -0.000000 0.000000
226
root -38.715897 33.469980 -1.367898 -355.064347 -32.537961 4.455495
Spine -4.269036 6.231470 1.522780
Head -14.863705 6.581830 0.391855
LeftShoulder -11.427731 22.218686 3.414057
LeftArm 34.672629 40.531545 -62.023611
LeftForeArm -6.989258 -0.000000 23.912609
LeftHand -21.368015 0.000000 -4.416067
LeftHandThumb1 -26.253704 0.000000 33.147579
RightShoulder -16.622364 5.584035 -21.968025
RightArm -16.520747 -50.007189 101.148820
RightForeArm -4.405600 0.000000 34.804809
RightHand -2.317513 -0.000000 14.070916
RightHandThumb1 -24.326973 -0.000000 -32.862282
LeftUpLeg -0.501186 8.201855 9.415297
LeftLeg 18.696617 -0.000000 -0.000000
LeftFoot 5.557098 32.560233 341.738518
LeftToeBase -7.393751 -0.000000 0.000000
RightUpLeg -9.218693 -26.650360 4.540494
RightLeg 9.309988 -0.000000 -0.000000
RightFoot -1.221190 -23.998081 -4.175539
RightToeBase -3.368828 -0.000000 0.000000
227
root -38.771274 33.498616 -1.402843 -355.039310 -30.855671 4.605324
Spine -4.214623 6.329913 1.423799
Head -14.911658 6.802031 0.156784
LeftShoulder -11.604661 22.164183 3.304483
LeftArm 34.459711 39.967060 -62.064426
LeftForeArm -6.701782 -0.000000 23.959484
LeftHand -21.240366 -0.000000 -4.225563
LeftHandThumb1 -26.253704 0.000000 33.147579
RightShoulder -16.587753 5.540448 -21.895176
RightArm -16.414628 -49.907488 101.010389
RightForeArm -4.693524 -0.000000 35.055082
RightHand -2.328390 -0.000000 13.986569
RightHandThumb1 -24.326973 -0.000000 -32.862282
LeftUpLeg -1.095335 8.436756 9.018525
LeftLeg 18.061583 -0.000000 -0.000000
LeftFoot 4.476729 32.247076 341.967442
LeftToeBase -7.629103 -0.000000 0.000000
RightUpLeg -9.110375 -27.183897 4.421037
RightLeg 9.192495 -0.000000 -0.000000
RightFoot -1.001233 -24.426198 -4.235675
RightToeBase -3.168371 -0.000000 0.000000
228
root -38.828980 33.523991 -1.437397 -355.067369 -29.197809 4.731987
Spine -4.102441 6.602887 1.330024
Head -14.874048 6.814193 -0.039128
LeftShoulder -11.561658 22.181893 3.370364
LeftArm 34.610647 39.633205 -61.831123
LeftForeArm -6.784197 -0.000000 23.822941
LeftHand -21.120210 -0.000000 -3.816830
LeftHandThumb1 -26.253704 0.000000 33.147579
RightShoulder -16.672996 5.520087 -21.874895
RightArm -16.377873 -49.939307 100.943328
RightForeArm -4.765040 -0.000000 35.190170
RightHand -2.432534 -0.000000 14.227189
RightHandThumb1 -24.326973 -0.000000 -32.862282
LeftUpLeg -1.562748 8.395464 8.591260
LeftLeg 17.326615 -0.000000 -0.000000
LeftFoot 3.447885 32.177873 341.848265
LeftToeBase -7.196283 -0.000000 0.000000
RightUpLeg -8.895646 -27.596766 4.252424
RightLeg 9.106540 -0.000000 -0.000000
RightFoot -0.820450 -24.802337 -4.572939
RightToeBase -3.411176 -0.000000 0.000000
229
root -38.890876 33.548281 -1.468386 -355.002732 -27.582558 4.716491
Spine -4.017842 6.781458 1.454542
Head -14.887590 6.891327 -0.369584
LeftShoulder -11.704795 22.250345 3.300269
LeftArm 34.880185 39.419323 -61.397292
LeftForeArm -6.895955 -0.000000 23.718959
LeftHand -21.052122 0.000000 -3.648901
LeftHandThumb1 -26.253704 0.000000 33.147579
RightShoulder -16.704345 5.471051 -21.917392
RightArm -16.288512 -50.209795 100.820187
RightForeArm -4.787048 -0.000000 35.342651
RightHand -2.582236 0.000000 14.198815
RightHandThumb1 -24.326973 -0.000000 -32.862282
LeftUpLeg -2.161031 9.220713 8.288343
LeftLeg 16.843681 -0.000000 -0.000000
LeftFoot 2.784922 31.530534 341.863640
LeftToeBase -7.693190 -0.000000 0.000000
RightUpLeg -8.698386 -27.881037 4.202934
RightLeg 9.124665 -0.000000 -0.000000
RightFoot -0.990823 -24.638290 -4.232428
RightToeBase -3.099302 -0.000000 0.000000
230
root -38.938580 33.575456 -1.505913 -354.984846 -25.922365 4.721624
Spine -3.843664 6.862400 1.626026
Head -14.973269 6.931263 -0.758611
LeftShoulder -11.745691 22.307872 3.261377
LeftArm 35.075103 38.902232 -61.323078
LeftForeArm -6.710529 -0.000000 23.298736
LeftHand -20.813644 -0.000000 -4.340253
LeftHandThumb1 -26.253704 0.000000 33.147579
RightShoulder -16.725503 5.514521 -22.009210
RightArm -16.210877 -50.399051 100.672557
RightForeArm -4.886830 0.000000 35.444571
RightHand -2.547178 0.000000 14.155219
RightHandThumb1 -24.326973 -0.000000 -32.862282
LeftUpLeg -2.737560 9.593644 7.890838
LeftLeg 16.432301 -0.000000 -0.000000
LeftFoot 2.031790 31.104188 341.691971
LeftToeBase -7.375464 -0.000000 0.000000
RightUpLeg -8.491077 -28.069833 4.070962
RightLeg 9.244000 -0.000000 -0.000000
RightFoot -1.208493 -24.379468 -3.642379
RightToeBase -1.833969 -0.000000 0.000000
231
root -38.981146 33.600774 -1.540389 -354.944730 -24.342691 4.661686
Spine -3.688219 6.941764 1.911912
Head -15.009572 6.802310 -1.284057
LeftShoulder -11.691921 22.181978 3.319277
LeftArm 34.683718 38.036976 -62.041166
LeftForeArm -5.932595 0.000000 22.746988
LeftHand -20.653791 -0.000000 -5.343030
LeftHandThumb1 -26.253704 0.000000 33.147579
RightShoulder -16.675592 5.574092 -22.161355
RightArm -16.141718 -50.530711 100.491036
RightForeArm -5.066413 -0.000000 35.540874
RightHand -2.574223 -0.000000 14.277974
RightHandThumb1 -24.326973 -0.000000 -32.862282
LeftUpLeg -3.346688 10.185940 7.523314
LeftLeg 16.231041 -0.000000 -0.000000
LeftFoot 1.159839 30.418488 341.284367
LeftToeBase -6.927473 -0.000000 0.000000
RightUpLeg -8.252510 -28.270787 3.959502
RightLeg 9.191023 -0.000000 -0.000000
RightFoot -0.862775 -24.607085 -3.763965
RightToeBase -1.758098 -0.000000 0.000000
232
root -39.022699 33.626542 -1.575035 -354.902466 -22.779507 4.663843
Spine -3.607723 7.022745 2.099302
Head -14.919284 6.786653 -1.616939
LeftShoulder -11.640637 22.155444 3.339662
LeftArm 34.720162 37.744739 -61.866923
LeftForeArm -5.849641 -0.000000 22.475847
LeftHand -20.644767 -0.000000 -5.280058
LeftHandThumb1 -26.253704 0.000000 33.147579
RightShoulder -16.667507 5.553302 -22.259111
RightArm -16.020100 -50.667246 100.271533
RightForeArm -5.293581 0.000000 35.611444
RightHand -2.658630 -0.000000 14.334024
RightHandThumb1 -24.326973 -0.000000 -32.862282
LeftUpLeg -3.891866 10.639103 7.058323
LeftLeg 15.847498 -0.000000 -0.000000
LeftFoot 0.434775 30.001716 340.646343
LeftToeBase -7.364976 -0.000000 0.000000
RightUpLeg -8.028822 -28.099358 3.770672
RightLeg 9.380600 -0.000000 -0.000000
RightFoot -0.764268 -24.572005 -3.110265
RightToeBase -3.230837 -0.000000 0.000000
233
root -39.057719 33.653794 -1.607188 -354.902566 -21.230768 4.646764
Spine -3.462976 7.087760 2.351949
Head -14.842072 6.706582 -1.970055
LeftShoulder -11.574010 22.215166 3.295145
LeftArm 34.929447 37.486286 -61.496569
LeftForeArm -5.934984 -0.000000 22.176581
LeftHand -20.720995 -0.000000 -4.581526
LeftHandThumb1 -26.253704 0.000000 33.147579
RightShoulder -16.699714 5.497207 -22.359834
RightArm -15.813354 -50.911015 99.931172
RightForeArm -5.669284 -0.000000 35.677440
RightHand -2.626835 -0.000000 14.284533
RightHandThumb1 -24.326973 -0.000000 -32.862282
LeftUpLeg -4.294399 10.828528 6.601861
LeftLeg 15.335137 -0.000000 -0.000000
LeftFoot -0.185273 29.498944 339.925126
LeftToeBase -8.275273 -0.000000 0.000000
RightUpLeg -7.769965 -27.994072 3.563304
RightLeg 9.583409 -0.000000 -0.000000
RightFoot -0.589100 -24.336812 -2.631860
RightToeBase -5.747353 -0.000000 0.000000
